<svg width="18" height="18" viewBox="0 0 18 18" fill="none" xmlns="http://www.w3.org/2000/svg">
<path d="M14.8335 3.16648C13.2752 1.60816 11.2035 0.75 8.99967 0.75C6.79589 0.75 4.72411 1.60816 3.16582 3.16644C1.8414 4.49086 1.00061 6.24369 0.798229 8.10207C0.606899 9.8589 0.98872 11.6471 1.87456 13.163L1.01482 16.3715C0.968482 16.5444 1.01792 16.7289 1.14454 16.8555C1.27109 16.982 1.45565 17.0315 1.62845 16.9852L4.837 16.1255C6.09718 16.8619 7.54574 17.25 9.00789 17.25C9.30447 17.25 9.60163 17.234 9.89789 17.2018C11.7563 16.9994 13.5091 16.1586 14.8335 14.8341C16.3918 13.2759 17.25 11.204 17.25 9.00032C17.25 6.79661 16.3918 4.72476 14.8335 3.16648ZM14.125 14.1256C11.7295 16.521 8.05025 16.9467 5.17766 15.1608C5.09748 15.111 5.00573 15.0853 4.91308 15.0853C4.86971 15.0853 4.82614 15.0909 4.78343 15.1024L2.20734 15.7927L2.89763 13.2166C2.93347 13.0828 2.91229 12.94 2.83917 12.8224C1.05327 9.94968 1.47898 6.27041 3.87435 3.87501C6.7005 1.04893 11.2988 1.04893 14.125 3.87501C16.951 6.70109 16.951 11.2995 14.125 14.1256Z" fill="#E5E5E5"/>
</svg>
